<svg
    xmlns="http://www.w3.org/2000/svg"
    viewBox="0 0 425 500">
  <path
      d="M262.29,386.59l.84,9.06c1.41-.61,2.43-1,3.42-1.49a34.15,34.15,0,0,1,21.39-2.91c11.52,2.15,19,10.25,19.33,20.74.28,10.33-7,19.11-18.14,22-9.74,2.48-18.73.62-27.05-4.83-2.17-1.42-4.31-2.92-6.34-4.53-4.84-3.85-4.86-4-9.77.09-9.67,8-20.37,12.35-33.11,9.5-11-2.46-17.66-10.23-18-20.71-.35-9.48,6.41-18.14,16.66-21.29,11.73-3.6,22.13-.57,31.67,6.5,2.24,1.66,4.43,3.42,6.9,5.33,3-5.61,1.77-10.89.37-16.1-.15-.56-1.68-1-2.59-1.05-11.36-.47-22.7-1.3-33.56-4.83a78.2,78.2,0,0,1-15.12-6.74c-5.76-3.35-8.48-8.55-8.5-15.63,0-20.49-2-40.79-7.55-60.65-5-18-13.81-34.34-23.18-50.36-9.52-16.27-18-33-21.83-51.64-5.22-25.68-7.49-51.48-.54-77.23a117.7,117.7,0,0,1,229.05,8.85c3.16,16.31,2.13,32.69.66,49.09-2.51,28-13.76,52.8-28.18,76.39-18.5,30.27-26.6,63.33-27,98.53,0,2.24-.35,4.5-.19,6.72.54,7.33-2.91,12.44-8.78,16.24-8.52,5.52-18.18,7.74-28,9.4C271.08,385.69,267,386,262.29,386.59ZM291.44,80.35c-.12.79-.17,1.22-.26,1.65-5.17,23.53-4.7,46.75,2.31,70,4.84,16,5.58,32.57,1.22,49-5.4,20.4-17.79,36-33.93,48.94-6.54,5.26-13.24,10.33-19.57,15.82-15.4,13.35-20,29.45-13,49.07C234,331.09,244.9,344.4,251.72,359c3.24-4.48,6.59-9.09,9.92-13.72,2.34-3.26,5-6.35,6.86-9.86,1.71-3.21,2.56-6.88,3.79-10.35a13.24,13.24,0,0,0-5.2,1c-5,1.85-10.27,1.94-14.72-.87-5.28-3.33-10-7.61-14.08-10.84,4.78-2,10.13-3.62,14.72-6.45s9-3.58,13.42-.37c3.5,2.52,6.72,5.43,9.71,7.87,1.6-4.24,2.88-9,5.15-13.31,2.64-5,6.13-9.5,9.55-14.68,2.31,3.39,5.18,6.87,7.23,10.78,4.24,8.09,1.74,21.62-10.44,23.65-4.74.79-7.77,4.18-9.07,8.6a49.92,49.92,0,0,1-12.75,21.4c-8,8-7.37,17.28-5.51,27.59,4.64-.51,9.21-.83,13.71-1.55,8.66-1.38,17.15-3.41,24.77-8,4.05-2.47,6.32-5.83,6.05-10.8-.16-3.06.11-6.14.2-9.21.59-20.29,3.26-40.25,9.4-59.66,5.24-16.56,13.5-31.69,22.3-46.53,12.31-20.78,21.05-42.75,23.41-67,1.51-15.56,2.46-31.12-.57-46.62C348.26,72.17,294.36,33,235.79,41.68c-45.36,6.73-75.59,33.22-90.18,76.62-8.58,25.53-5.74,51.61-.4,77.42,3.73,18.05,12.17,34.16,21.38,49.92s17.86,31.92,23,49.69c6.06,21,8,42.44,8.28,64.11.06,4.9,2.07,8.38,6.08,10.34A98.89,98.89,0,0,0,220,376.1a90.73,90.73,0,0,0,27.86,3.18c-.41-1.27-.65-2.16-1-3a155.34,155.34,0,0,0-15.24-29.52c-16-24.47-30.26-49.91-40.3-77.45a159.36,159.36,0,0,1-8.64-76.42c4-30.16,19.33-54.16,43.47-72.06,13.13-9.74,27.67-17.59,41.63-26.21C275.53,89.83,283.34,85.23,291.44,80.35ZM260.2,412.76c5.71,5.17,11,10.1,18.78,11.07,6.89.86,13.79-4.12,14.2-10.27.44-6.71-5-11.73-12.59-11.6C272.11,402.09,266.39,407.37,260.2,412.76Zm-18,.37c-3.21-2.58-6-5-8.92-7.14A19.15,19.15,0,0,0,220,402c-8.65.72-13.59,8.9-9.76,16.25,2,3.82,8.11,6.34,13.27,5.54C230.89,422.6,236.19,417.84,242.18,413.13ZM223.37,236.6c.58-8.73.95-16.86,1.68-24.94,1.38-15.26,6.37-28.65,19.31-38.26,3.8-2.82,6.8-6.88,9.68-10.74a70.14,70.14,0,0,0,11.14-21.06c-6.08,10.28-12.6,20.19-21.88,28.64l-3.22-16.71c-.63,4.84,0,9.57-.37,14.23-.18,2.59-1.25,5.76-3.05,7.47-7.82,7.4-12,16.49-14,26.84-.76,4.08-1.27,8.2-1.89,12.31l-1.24.28-8-21.43c.06,6,2,13.07,5.19,19.92A39.1,39.1,0,0,1,220,223.51c1.56,10.45-.79,20.67-2.53,30.91-.36,2.15-.78,4.29-1.17,6.43,3.8-10.34,5.82-21.3,13.16-30.12l-.84-.5Z"
      transform="translate(-260 0)"/>
  <path
      d="M210,441.68h81.53c-.52,6.91-3.85,12-9.26,16s-12,2.88-18,3.38c-3.63,8.66-11.51,12.48-19,8.78a15.92,15.92,0,0,1-6.31-6.27c-1.2-2.14-2.27-2.84-4.52-2.71-5.89.32-11.57-.22-16.3-4.4A24.88,24.88,0,0,1,210,441.68Z"
      transform="translate(-260 0)"/>
      
  <path
      d="M77.22,196.68H46.47v-10.9H92.16a35.15,35.15,0,0,1-32.29,32.64c-19.5,1.71-35.32-10.28-38.46-28.89-3.23-19.17,7.35-37.91,24.11-42.06,17.48-4.33,34.48,2.21,42.76,19-3.57,0-7.12.33-10.56-.14-1.62-.22-3.11-1.89-4.53-3.06-9.89-8.16-21.47-8.91-31.23-2-11.86,8.44-14.36,25.57-5.36,36.78s26.06,12.6,36.46,3.12C74.33,200.08,75.41,198.68,77.22,196.68Z"
      transform="translate(60 130)"/>
  <path
      d="M171.52,265.23h8.88c.42,1.29.72,2.58,1.24,3.78,1.3,3,3.69,4.25,6.92,4.07a6.46,6.46,0,0,0,6.14-4.72c1.12-3.12-.45-5.23-2.73-6.81-4.27-3-8.87-5.47-13-8.6-5.88-4.45-7-12.23-3-18.4,3.78-5.84,9.82-8,16.83-5.89,5.83,1.72,9.17,6.81,9.05,14.09h-7.7c-.3-.85-.62-1.88-1-2.88a5.05,5.05,0,0,0-5.39-3.52,5.82,5.82,0,0,0-5.55,4c-1,2.48-.16,4.42,1.73,5.87,2.63,2,5.42,3.82,8.18,5.67,1.47,1,3.07,1.79,4.5,2.82,4.69,3.4,7.74,7.55,6.37,13.82-1.5,6.85-5.57,11.18-12.26,12.38-6.22,1.11-11.56-.86-15.17-6C173.77,272.29,173,268.94,171.52,265.23Z"
      transform="translate(60 130)"/>
  <path
      d="M443.12,266.83V240.14h6.38v40c-4.59,1.36-5.65,1-8.48-2.83L422.9,252.68v27.48l-6.4.59V240.3c3.74-1.07,6.37-.37,8.72,3.08,5.47,8,11.41,15.77,17.15,23.62Z"
      transform="translate(60 130)"/>
  <path
      d="M101.35,212.11v-40.3c7.77,0,15.51-.42,23.18.15,5.28.39,9.61,5.35,10.48,10.26a13.54,13.54,0,0,1-6.28,13.65c-.93.58-1.94,1-3.24,1.73L135,211.85c-6.25,1.52-7.36,1.08-10.59-4a21.47,21.47,0,0,1-2.09-3.38c-2.61-6.59-7.47-8.35-14.38-6.42v14.07ZM108,191.2c4.88,0,9.51.14,14.12,0a6.63,6.63,0,0,0,6.28-6.17,6.43,6.43,0,0,0-5.75-6.62c-4.81-.26-9.65-.07-14.65-.07Z"
      transform="translate(60 130)"/>
  <path
      d="M213.59,212.37h-6.45V172.16c3.9-1,6.54-.22,8.92,3.41,5.34,8.13,11.26,15.88,17.45,24.48v-28h6.62V212.2c-3.87,1-6.51.12-8.9-3.41-5.39-8-11.31-15.57-17.64-24.17Z"
      transform="translate(60 130)"/>
  <path
      d="M331.4,172.61c-2.34,3.07-4.76,5-8.76,5.44-7.68.81-12.5,7.54-11.78,15.42.62,6.84,7.37,12.81,14.36,12.7a14.73,14.73,0,0,0,14.07-13.78,14,14,0,0,0-.43-2.42c-3,3-5.58,5.75-8.31,8.37-4.1,3.94-4.57,3.84-7.79-.89l18.3-18.24c6.23,6.41,6.49,17.71.24,25.64a20,20,0,0,1-26.51,4.79c-8.88-5.5-13-17-9.14-25.64C310,174.22,320.75,169.33,331.4,172.61Z"
      transform="translate(60 130)"/>
  <path
      d="M228.15,239.68a20.25,20.25,0,0,1,20.48,20.76c-.09,11.52-9.12,20.73-20.28,20.71-12.19,0-21.26-9.1-21.19-21.22C207.22,248.4,216.34,239.6,228.15,239.68Zm14.24,20.48a14.5,14.5,0,0,0-29,.22,14.68,14.68,0,0,0,15,14.56C236,274.83,242.47,268.06,242.39,260.16Z"
      transform="translate(60 130)"/>
  <path
      d="M389.84,239.68a20.35,20.35,0,0,1,20.7,20.62c-.06,11.59-9.28,20.94-20.57,20.85-11.85-.09-21-9.08-21-20.76S378,239.64,389.84,239.68Zm14.27,20.7a14.28,14.28,0,0,0-14.45-14.57,14.57,14.57,0,0,0,.32,29.14C397.72,275,404.07,268.41,404.1,260.38Z"
      transform="translate(60 130)"/>
  <path
      d="M249.78,211.93V159.79h8.09v44h28.06v8.09Z"
      transform="translate(60 130)"/>
  <path
      d="M351.73,172h6.14v16.39H378V172h6.44v39.9h-5.95V195.47H358.06v16.48h-6.34Z"
      transform="translate(60 130)"/>
  <path
      d="M198.17,171.82v6.34H181.4v10.41h16.68v6.56H181.3v10.75H198v6.3H175V171.82Z"
      transform="translate(60 130)"/>
  <path
      d="M166.52,212.29H143.46V171.78h23.06v6.39H150v10.37h16.49v6.65H149.89v10.58h16.63Z"
      transform="translate(60 130)"/>
  <path
      d="M288.88,240h5.93c.06,1.25.16,2.42.16,3.59,0,7.2,0,14.41,0,21.61a9.21,9.21,0,0,0,9.29,9.25c4.82.05,8.39-3.76,8.43-9.16.06-7.09,0-14.19,0-21.28,0-1.19,0-2.38,0-3.75h6.65c0,3.75.07,7.47,0,11.18-.12,5.31-.28,10.62-.54,15.93-.32,6.75-4.23,11.6-10.53,13.25-6.72,1.76-13.39-.61-16.77-6.32a15.91,15.91,0,0,1-2.53-7.08C288.7,258.31,288.88,249.35,288.88,240Z"
      transform="translate(60 130)"/>
  <path
      d="M478.3,251.12l-5.89.32c-.39-1.2-.44-2.48-1.11-3.18-1-1-2.44-2.34-3.6-2.25a6,6,0,0,0-4.23,2.4c-.63,1-.38,3.6.49,4.39a97.25,97.25,0,0,0,9.69,7.48c4.7,3.34,6.39,7.07,5.16,11.87-1.46,5.67-5.93,9-12,8.9-5.66-.09-9.64-3.46-10.9-9.28-.21-1-.33-2-.53-3.21h6.14c.63,3.18,1.77,6.43,5.92,5.8a7.41,7.41,0,0,0,4.83-3.09c1.18-2.1.48-4.54-1.86-6.05-3.44-2.22-7-4.29-10.26-6.73-3.89-2.91-4.8-7.15-2.89-11.54,2.41-5.56,6.93-8.06,12.8-7.09C475.14,240.71,477.71,244.09,478.3,251.12Z"
      transform="translate(60 130)"/>
  <path
      d="M254.48,240.08h6.33v33.84h21.88v6.66H254.48Z"
      transform="translate(60 130)"/>
  <path
      d="M352,240.41v6.39H341.27v33.66H334.7V246.6H324v-6.19Z"
      transform="translate(60 130)"/>
  <path
      d="M406.85,178v34h-6.57V178.43L389.6,178v-6h28.13v6Z"
      transform="translate(60 130)"/>
  <path
      d="M356.82,240.07h6.06v40.41h-6.06Z"
      transform="translate(60 130)"/>
  <path
      d="M292.35,172.08h6.21v40.37h-6.21Z"
      transform="translate(60 130)"/>
</svg>